<svg xmlns="http://www.w3.org/2000/svg" viewBox="0 0 48 48"><title>MaxxRenoLogo</title><path d="M45,0,40.76,4.21v0l-7.55,7.55a16.15,16.15,0,0,1,3.23,2.77l4.32-4.32V37.76l-5.1-5.1a13.35,13.35,0,0,0-10.81-21.2H17.48l4.22,4.21,0,0h3.12a9.11,9.11,0,0,1,4.74,16.89l1.17,1.17h0L45,48h0V0Z" fill="currentColor"/><path d="M26.88,18.12,24,21l-5.3-5.3h0l-4.25-4.24h0L7.24,4.24v0L3,0H3V48H3L13.61,37.4h0V19.61l-.93-.92-3-3h0l-.37-.37v.37h0V35.64L7.24,37.76V10.24L20.63,23.63v0L24,27l.24-.23h0l6.19-6.19A7,7,0,0,0,26.88,18.12Z" fill="currentColor"/></svg>